<svg width="173" height="32" viewBox="0 0 173 32" fill="none" xmlns="http://www.w3.org/2000/svg">
<g clip-path="url(#clip0_1_2686)">
<path d="M58.7572 9.364C60.0892 9.364 61.2532 9.628 62.2492 10.156C63.2452 10.684 64.0132 11.428 64.5532 12.388C65.1052 13.336 65.3812 14.434 65.3812 15.682C65.3812 16.918 65.1052 18.016 64.5532 18.976C64.0132 19.936 63.2392 20.68 62.2312 21.208C61.2352 21.736 60.0772 22 58.7572 22H54.0232V9.364H58.7572ZM58.5592 19.336C59.7232 19.336 60.6292 19.018 61.2772 18.382C61.9252 17.746 62.2492 16.846 62.2492 15.682C62.2492 14.518 61.9252 13.612 61.2772 12.964C60.6292 12.316 59.7232 11.992 58.5592 11.992H57.1012V19.336H58.5592ZM74.0774 22.126C72.8894 22.126 71.7974 21.85 70.8014 21.298C69.8174 20.746 69.0314 19.978 68.4434 18.994C67.8674 17.998 67.5794 16.882 67.5794 15.646C67.5794 14.41 67.8674 13.3 68.4434 12.316C69.0314 11.332 69.8174 10.564 70.8014 10.012C71.7974 9.46 72.8894 9.184 74.0774 9.184C75.2654 9.184 76.3514 9.46 77.3354 10.012C78.3314 10.564 79.1114 11.332 79.6754 12.316C80.2514 13.3 80.5394 14.41 80.5394 15.646C80.5394 16.882 80.2514 17.998 79.6754 18.994C79.0994 19.978 78.3194 20.746 77.3354 21.298C76.3514 21.85 75.2654 22.126 74.0774 22.126ZM74.0774 19.318C75.0854 19.318 75.8894 18.982 76.4894 18.31C77.1014 17.638 77.4074 16.75 77.4074 15.646C77.4074 14.53 77.1014 13.642 76.4894 12.982C75.8894 12.31 75.0854 11.974 74.0774 11.974C73.0574 11.974 72.2414 12.304 71.6294 12.964C71.0294 13.624 70.7294 14.518 70.7294 15.646C70.7294 16.762 71.0294 17.656 71.6294 18.328C72.2414 18.988 73.0574 19.318 74.0774 19.318ZM89.6957 22L87.0677 17.23H86.3297V22H83.2517V9.364H88.4177C89.4137 9.364 90.2597 9.538 90.9557 9.886C91.6637 10.234 92.1917 10.714 92.5397 11.326C92.8877 11.926 93.0617 12.598 93.0617 13.342C93.0617 14.182 92.8217 14.932 92.3417 15.592C91.8737 16.252 91.1777 16.72 90.2537 16.996L93.1697 22H89.6957ZM86.3297 15.052H88.2377C88.8017 15.052 89.2217 14.914 89.4977 14.638C89.7857 14.362 89.9297 13.972 89.9297 13.468C89.9297 12.988 89.7857 12.61 89.4977 12.334C89.2217 12.058 88.8017 11.92 88.2377 11.92H86.3297V15.052ZM103.86 19.768H99.1439L98.3879 22H95.1659L99.7379 9.364H103.302L107.874 22H104.616L103.86 19.768ZM103.068 17.392L101.502 12.766L99.9539 17.392H103.068Z" fill="white"/>
<path d="M17.049 0.019043L0 11.0404L7.59215 15.9483L17.049 9.83492L26.5059 15.9483L34.0982 11.0404L17.049 0.019043Z" fill="white"/>
<path d="M7.59205 15.9482L0 20.8561L17.049 31.8775L34.0982 20.8561L26.5061 15.9482L17.049 22.0618L7.59205 15.9482Z" fill="white"/>
</g>
<defs>
<clipPath id="clip0_1_2686">
<rect width="173" height="32" fill="white"/>
</clipPath>
</defs>
</svg>
