<svg width="47" height="35" viewBox="0 0 47 35" fill="none" xmlns="http://www.w3.org/2000/svg">
<path d="M45.5717 10.2083H40.1148L38.5981 6.41667C37.0395 2.51836 33.3199 0 29.1208 0H17.5452C13.3471 0 9.62649 2.51836 8.06699 6.41667L6.55032 10.2083H1.09433C0.382481 10.2083 -0.139785 10.8773 0.0333925 11.5673L0.580267 13.7548C0.701491 14.2415 1.13899 14.5833 1.6412 14.5833H3.4705C2.24641 15.6525 1.458 17.2065 1.458 18.9583V23.3333C1.458 24.8026 2.01946 26.1288 2.91634 27.1551V32.0833C2.91634 33.6939 4.22246 35 5.833 35H8.74967C10.3602 35 11.6663 33.6939 11.6663 32.0833V29.1667H34.9997V32.0833C34.9997 33.6939 36.3058 35 37.9163 35H40.833C42.4436 35 43.7497 33.6939 43.7497 32.0833V27.1551C44.6465 26.1297 45.208 24.8035 45.208 23.3333V18.9583C45.208 17.2065 44.4196 15.6525 43.1964 14.5833H45.0257C45.5279 14.5833 45.9654 14.2415 46.0867 13.7548L46.6335 11.5673C46.8058 10.8773 46.2835 10.2083 45.5717 10.2083ZM13.4829 8.5832C14.1473 6.92253 15.7561 5.83333 17.5452 5.83333H29.1208C30.91 5.83333 32.5187 6.92253 33.1831 8.5832L34.9997 13.125H11.6663L13.4829 8.5832ZM8.74967 23.3151C6.99967 23.3151 5.833 22.1521 5.833 20.4076C5.833 18.663 6.99967 17.5 8.74967 17.5C10.4997 17.5 13.1247 20.1168 13.1247 21.8613C13.1247 23.6059 10.4997 23.3151 8.74967 23.3151ZM37.9163 23.3151C36.1663 23.3151 33.5413 23.6059 33.5413 21.8613C33.5413 20.1168 36.1663 17.5 37.9163 17.5C39.6663 17.5 40.833 18.663 40.833 20.4076C40.833 22.1521 39.6663 23.3151 37.9163 23.3151Z" fill="black"/>
</svg>
