<svg xmlns="http://www.w3.org/2000/svg" viewBox="0 0 890.05 216.79"><defs><style>.cls-1{fill:#000f9e;}.cls-2{fill:#4dbbff;}</style></defs><g id="Слой_2" data-name="Слой 2"><g id="Layer_1" data-name="Layer 1"><path class="cls-1" d="M411.17,151.23a57.29,57.29,0,0,1-23.66,46.69,98.74,98.74,0,0,1-63.07,18.74c-41.41,0-74.9-11.64-100.11-34.85l26.85-34a102.3,102.3,0,0,0,66.62,21.39c22.38,0,33.58-5.92,33.58-18.2a14,14,0,0,0-9.1-13.47A109.09,109.09,0,0,0,311.15,130a109.27,109.27,0,0,1-57.24-21.39,55.86,55.86,0,0,1-18.47-44A54.59,54.59,0,0,1,260,18.45,106.1,106.1,0,0,1,323.71.25a131.68,131.68,0,0,1,81.91,32.31L381.41,65.14a79.88,79.88,0,0,0-54.6-19.2c-21.48,0-32.22,5.73-32.22,17.38a12.93,12.93,0,0,0,8.1,12.47,161.73,161.73,0,0,0,32.67,8,122.89,122.89,0,0,1,56.7,21.94,54.59,54.59,0,0,1,19,45.5"/><path class="cls-1" d="M881.49,66.14a109.75,109.75,0,0,0-143-57.61,111.87,111.87,0,0,0-34.67,23.12,107.36,107.36,0,0,0-23.3,34.49A105.84,105.84,0,0,0,672,108.37v108.2h55.88V108.37A51,51,0,0,1,732,87.8a52.78,52.78,0,0,1,11.37-16.93A54.62,54.62,0,0,1,781,55.49a53.39,53.39,0,0,1,20.75,4.19,52.42,52.42,0,0,1,32.4,48.69v108.2h55.88V108.37a104.29,104.29,0,0,0-8.56-42.23"/><path class="cls-1" d="M185.2,31.65a108.89,108.89,0,0,0-119-23.12A107.51,107.51,0,0,0,8.37,66.14a110.69,110.69,0,0,0,0,84.45,108.5,108.5,0,0,0,23.21,34.5A107.36,107.36,0,0,0,66.16,208.2a109.86,109.86,0,0,0,84.55,0,106.87,106.87,0,0,0,34.49-23.11A108.56,108.56,0,0,0,208.41,66.14,110.82,110.82,0,0,0,185.2,31.65m-27.94,97.28a55.63,55.63,0,0,1-10.92,16.93,54.62,54.62,0,0,1-17,11.29A53,53,0,0,1,71.26,70.87,50.21,50.21,0,0,1,88.19,59.68a52.53,52.53,0,0,1,41.13,0,51.86,51.86,0,0,1,17,11.19A54.49,54.49,0,0,1,157.62,87.8a53.69,53.69,0,0,1,0,41.13"/><path class="cls-1" d="M615.21,184.9a107.58,107.58,0,0,1-104.84,27.76A104,104,0,0,1,462,184.9a106.35,106.35,0,0,1-28-48.87A108.39,108.39,0,1,1,630.4,166.25a114.19,114.19,0,0,1-14.92,18.2"/><path class="cls-2" d="M615.21,184.9a107.58,107.58,0,0,1-104.84,27.76.93.93,0,0,1,0-.73A108.11,108.11,0,0,1,643.6,80a108.29,108.29,0,0,1-12.83,86.28,114.79,114.79,0,0,1-14.93,18.2"/></g></g></svg>