<svg xmlns="http://www.w3.org/2000/svg" xmlns:xlink="http://www.w3.org/1999/xlink" viewBox="0 0 791.31 309.6"><defs><style>.cls-1{fill:none;}.cls-2{clip-path:url(#clip-path);}.cls-3{fill:#7000ff;fill-rule:evenodd;}</style><clipPath id="clip-path" transform="translate(-2.94 -2.65)"><rect class="cls-1" width="800" height="318.52"/></clipPath></defs><g id="Слой_2" data-name="Слой 2"><g id="Layer_1" data-name="Layer 1"><g class="cls-2"><path class="cls-3" d="M158.21,312.25c85.75,0,155.25-69.26,155.25-154.71C313.46,71.93,244,2.67,158.21,2.65S2.94,71.93,2.94,157.54C2.94,243,72.53,312.25,158.21,312.25Zm0-256.56c6.05,0,12,.24,17.82.77v82.59H140.45V56.46C146.25,55.93,152.22,55.69,158.19,55.69Zm60.37,38.93a293.26,293.26,0,0,1,39.66,10h0v59.76c0,54.87-44.79,99.7-100,99.7s-99.93-44.83-99.93-99.7V104.59a295.89,295.89,0,0,1,39.66-10V164c0,49.93,21.31,76.16,60.27,76.16S218.56,213.9,218.56,164Zm511.32-14c5.2-8.54,15.62-14.2,29.53-14.2,23.46,0,34.79,14.9,34.84,33.31v44.22H772.34V102.78c0-8.79-5-16.54-15.54-16.54S741,93.7,741,102.46v41.45H719.12V102.46c0-8.76-5.53-16.22-16.17-16.22S687.72,94,687.72,102.78v41.13H665.81V99.67c0-18.39,12-33.29,35.42-33.29C713.19,66.38,724.59,72,729.88,80.58ZM553.07,86.33V67.85H482V86.33h42.1l-43.81,39.12v18.48h75.44V125.45H509.33Zm74.11,21.35c0,12.11-6.84,17.69-16.94,17.69s-16.77-5.58-16.77-17.69V67.85H571.55v40.6c0,26.47,22.06,36.87,38.76,36.87,16.48,0,38.76-10.4,38.76-36.87V67.85H627.16v39.83Zm-183.19,0c0,12.11-6.84,17.69-16.94,17.69s-16.77-5.58-16.77-17.69V67.85H388.36v40.6c0,26.47,22.06,36.87,38.76,36.87,16.48,0,38.76-10.4,38.76-36.87V67.85H444v39.83ZM425.41,259a32.51,32.51,0,0,0,12.44,2.09,40.06,40.06,0,0,0,14-2.51,33.82,33.82,0,0,0,11.61-7.35,34.68,34.68,0,0,0,7.92-11.85,45.42,45.42,0,0,0,0-32.15,34.68,34.68,0,0,0-7.92-11.85A34,34,0,0,0,451.9,188a42.52,42.52,0,0,0-26.25-.9,38,38,0,0,0-8.3,3.77,26.1,26.1,0,0,0-6.34,5.27h-.9V155.48H388.4V260.94h21.71V247.81h1.05a23.92,23.92,0,0,0,6,6.63A35.72,35.72,0,0,0,425.41,259Zm21.11-22.47q-5.5,5.27-15.47,5.28t-15.45-5.28a17.58,17.58,0,0,1-5.51-13.26,17.11,17.11,0,0,1,5.74-13.41q5.73-5.13,15.22-5.13,10,0,15.47,5.28a18.71,18.71,0,0,1,0,26.52Zm147.41-50.92h21.73v13.52h1.21a20.78,20.78,0,0,1,5.58-6.76,33.61,33.61,0,0,1,8.23-4.7c3.48-1.47,7.92-2.21,13.36-2.21a40.77,40.77,0,0,1,12.44,1.86,26.57,26.57,0,0,1,10.1,5.84,27.25,27.25,0,0,1,6.72,10.07,39.32,39.32,0,0,1,2.41,14.49v43.23H654V223.84c0-6.47-1.77-11.28-5.27-14.42s-8.16-4.71-13.89-4.71q-9.51,0-14.33,5.37t-4.83,13.76v37.07H593.93Zm121.61-30.13H693.81V260.93h21.73V224l33.8,36.91H775L740,222.2l32.28-36.61H746.76l-31.22,35.25ZM572.71,234.73V183.66H550.24l.17,12.42c-4.89-7.29-13.49-13.94-28.74-13.94-26.23,0-39.71,20.37-39.71,40.8-.48,20.68,14.77,41.28,38.59,41.28,12.61,0,24.16-5.61,29.69-15.47,2.24,6.5,7.86,13.63,19.58,13.63h13V243.29h-3.62C574.64,243.29,572.71,241.62,572.71,234.73Zm-46.3,9.77c-12.91,0-22.54-8.89-22.54-21.4,0-12.34,9.63-21.09,22.54-21.09,13.32,0,23,8.75,23,21.09C549.36,235.59,539.73,244.5,526.41,244.5Z" transform="translate(-2.94 -2.65)"/></g></g></g></svg>